<svg xmlns="http://www.w3.org/2000/svg" width="21.03" height="22.03" viewBox="0 0 21.03 22.03">
  <metadata><?xpacket begin="﻿" id="W5M0MpCehiHzreSzNTczkc9d"?>
<x:xmpmeta xmlns:x="adobe:ns:meta/" x:xmptk="Adobe XMP Core 5.6-c142 79.160924, 2017/07/13-01:06:39        ">
   <rdf:RDF xmlns:rdf="http://www.w3.org/1999/02/22-rdf-syntax-ns#">
      <rdf:Description rdf:about=""/>
   </rdf:RDF>
</x:xmpmeta>
                                                                                                    
                                                                                                    
                                                                                                    
                                                                                                    
                                                                                                    
                                                                                                    
                                                                                                    
                                                                                                    
                                                                                                    
                                                                                                    
                                                                                                    
                                                                                                    
                                                                                                    
                                                                                                    
                                                                                                    
                                                                                                    
                                                                                                    
                                                                                                    
                                                                                                    
                                                                                                    
                           
<?xpacket end="w"?></metadata>
<defs>
    <style>
      .cls-1 {
        fill: #fff;
        fill-rule: evenodd;
      }
    </style>
  </defs>
  <path id="Forma_1" data-name="Forma 1" class="cls-1" d="M1233.15,2299.15h-0.01a0.427,0.427,0,0,0-.08.42l7.18,19.58a0.376,0.376,0,0,0,.35.25,0.362,0.362,0,0,0,.35-0.24l2.28-5.74,7.11,7.44a0.516,0.516,0,0,0,.77,0c0.77-.79,2.01-2.1,2.77-2.9a0.6,0.6,0,0,0,0-.81l-7.1-7.44,5.48-2.4a0.386,0.386,0,0,0,.23-0.36h0a0.385,0.385,0,0,0-.24-0.36l-18.69-7.53A0.357,0.357,0,0,0,1233.15,2299.15Z" transform="translate(-1233.03 -2299.03)"/>
</svg>
