<svg xmlns="http://www.w3.org/2000/svg" width="22" height="26" viewBox="0 0 22 26">
  <metadata><?xpacket begin="﻿" id="W5M0MpCehiHzreSzNTczkc9d"?>
<x:xmpmeta xmlns:x="adobe:ns:meta/" x:xmptk="Adobe XMP Core 5.6-c142 79.160924, 2017/07/13-01:06:39        ">
   <rdf:RDF xmlns:rdf="http://www.w3.org/1999/02/22-rdf-syntax-ns#">
      <rdf:Description rdf:about=""/>
   </rdf:RDF>
</x:xmpmeta>
                                                                                                    
                                                                                                    
                                                                                                    
                                                                                                    
                                                                                                    
                                                                                                    
                                                                                                    
                                                                                                    
                                                                                                    
                                                                                                    
                                                                                                    
                                                                                                    
                                                                                                    
                                                                                                    
                                                                                                    
                                                                                                    
                                                                                                    
                                                                                                    
                                                                                                    
                                                                                                    
                           
<?xpacket end="w"?></metadata>
<defs>
    <style>
      .cls-1 {
        fill: #fff;
        fill-rule: evenodd;
      }
    </style>
  </defs>
  <path id="Forma_1" data-name="Forma 1" class="cls-1" d="M864.5,2480.02h1.443a1.058,1.058,0,0,0,1.034-1.09v-0.84a1.064,1.064,0,0,0-1.034-1.09h-19.93a1.064,1.064,0,0,0-1.034,1.09v0.84a1.058,1.058,0,0,0,1.034,1.09h1.442c0.109,4.05,1.639,7.74,4,9.85-2.421,2.16-3.966,5.97-4,10.15h-1.441a1.064,1.064,0,0,0-1.034,1.09v0.8a1.064,1.064,0,0,0,1.034,1.09h19.93a1.064,1.064,0,0,0,1.034-1.09v-0.8a1.064,1.064,0,0,0-1.034-1.09H864.5c-0.039-4.18-1.584-7.98-4-10.15C862.862,2487.76,864.392,2484.07,864.5,2480.02Zm-6.719,10.76,0.387,0.21c2.623,1.36,4.391,4.94,4.437,9.03H849.351c0.046-4.09,1.816-7.67,4.438-9.03l0.386-.2a1.044,1.044,0,0,0,.547-0.93,1.056,1.056,0,0,0-.547-0.93l-0.386-.19c-2.559-1.32-4.309-4.81-4.436-8.72h13.253c-0.128,3.91-1.879,7.4-4.436,8.72l-0.387.19a1.043,1.043,0,0,0-.545.93A1.026,1.026,0,0,0,857.782,2490.78Zm-6.009,8.22h8.969A4.5,4.5,0,0,0,851.773,2499Zm7.56-12.44h-6.724A4.332,4.332,0,0,0,859.333,2486.56Z" transform="translate(-844.969 -2477)"/>
</svg>
