<svg xmlns="http://www.w3.org/2000/svg" width="30" height="30" viewBox="0 0 30 30">
  <metadata><?xpacket begin="﻿" id="W5M0MpCehiHzreSzNTczkc9d"?>
<x:xmpmeta xmlns:x="adobe:ns:meta/" x:xmptk="Adobe XMP Core 5.6-c142 79.160924, 2017/07/13-01:06:39        ">
   <rdf:RDF xmlns:rdf="http://www.w3.org/1999/02/22-rdf-syntax-ns#">
      <rdf:Description rdf:about=""/>
   </rdf:RDF>
</x:xmpmeta>
                                                                                                    
                                                                                                    
                                                                                                    
                                                                                                    
                                                                                                    
                                                                                                    
                                                                                                    
                                                                                                    
                                                                                                    
                                                                                                    
                                                                                                    
                                                                                                    
                                                                                                    
                                                                                                    
                                                                                                    
                                                                                                    
                                                                                                    
                                                                                                    
                                                                                                    
                                                                                                    
                           
<?xpacket end="w"?></metadata>
<defs>
    <style>
      .cls-1 {
        fill: #fff;
        fill-rule: evenodd;
        opacity: 0.5;
      }
    </style>
  </defs>
  <path id="in-icon" class="cls-1" d="M318.458,5994h-14.94a7.535,7.535,0,0,0-7.518,7.52v14.98a7.531,7.531,0,0,0,7.518,7.5h14.964a7.535,7.535,0,0,0,7.518-7.52v-14.96A7.571,7.571,0,0,0,318.458,5994Zm-12.466,24.29H301.71V6005.9h4.282v12.39ZM303.827,6004a2.19,2.19,0,1,1,2.189-2.19A2.217,2.217,0,0,1,303.827,6004Zm16.463,14.29H316.7v-6c0-1.46-.19-3.31-2.165-3.31-2.022,0-2.355,1.57-2.355,3.21v6.1h-3.569V6005.9h3.331v1.67h0.1c0.523-.95,1.737-1.69,3.64-1.69,3.925,0,4.615,2.26,4.615,5.62v6.79h0Z" transform="translate(-296 -5994)"/>
</svg>
