<svg xmlns="http://www.w3.org/2000/svg" width="30" height="30" viewBox="0 0 30 30">
  <metadata><?xpacket begin="﻿" id="W5M0MpCehiHzreSzNTczkc9d"?>
<x:xmpmeta xmlns:x="adobe:ns:meta/" x:xmptk="Adobe XMP Core 5.6-c142 79.160924, 2017/07/13-01:06:39        ">
   <rdf:RDF xmlns:rdf="http://www.w3.org/1999/02/22-rdf-syntax-ns#">
      <rdf:Description rdf:about=""/>
   </rdf:RDF>
</x:xmpmeta>
                                                                                                    
                                                                                                    
                                                                                                    
                                                                                                    
                                                                                                    
                                                                                                    
                                                                                                    
                                                                                                    
                                                                                                    
                                                                                                    
                                                                                                    
                                                                                                    
                                                                                                    
                                                                                                    
                                                                                                    
                                                                                                    
                                                                                                    
                                                                                                    
                                                                                                    
                                                                                                    
                           
<?xpacket end="w"?></metadata>
<defs>
    <style>
      .cls-1 {
        fill: #fff;
        fill-rule: evenodd;
        opacity: 0.5;
      }
    </style>
  </defs>
  <path id="TW-icon" class="cls-1" d="M278.458,5994h-14.94a7.535,7.535,0,0,0-7.518,7.52v14.98a7.531,7.531,0,0,0,7.518,7.5h14.964a7.535,7.535,0,0,0,7.518-7.52v-14.96A7.571,7.571,0,0,0,278.458,5994Zm-0.023,11.24v0.5a10.756,10.756,0,0,1-10.92,10.76,10.963,10.963,0,0,1-5.877-1.69c0.31,0.02.6,0.05,0.9,0.05a7.687,7.687,0,0,0,4.759-1.62,3.843,3.843,0,0,1-3.593-2.62,3.457,3.457,0,0,0,.714.07,3.73,3.73,0,0,0,1.023-.14,3.808,3.808,0,0,1-3.022-3.72v-0.04a3.7,3.7,0,0,0,1.713.47,3.752,3.752,0,0,1-1.713-3.14,3.8,3.8,0,0,1,.524-1.91,10.99,10.99,0,0,0,7.9,3.96,3.549,3.549,0,0,1-.1-0.86,3.8,3.8,0,0,1,3.831-3.79,3.93,3.93,0,0,1,2.807,1.19,7.032,7.032,0,0,0,2.426-.92,3.879,3.879,0,0,1-1.689,2.09,7.42,7.42,0,0,0,2.213-.59A7.963,7.963,0,0,1,278.435,6005.24Z" transform="translate(-256 -5994)"/>
</svg>
